# xmcd
#
# Track frame offsets: 
#        150
#        12498
#        32563
#        48603
#        64380
#        81197
#        96377
#        115975
#        135686
#        154550
#        167548
#        188014
#        220212
#        240911
#        262778
#        275162
#        294818
#        314015
#        330020
#
# Disc length: 4694 seconds
#
# Revision: 0
# Processed by: cddbd v1.5.2PL0 Copyright (c) Steve Scherf et al.
# Submitted via: ExactAudioCopy v0.99pb4
#
DISCID=06125413
DTITLE=Jaap de Bok - Van de Koude Grond
DYEAR=2008
DGENRE=Pop
TTITLE0=Jaap de Bok - Virgina
TTITLE1=Jaap de Bok - Iemand als jij
TTITLE2=Jaap de Bok  - 'T maakt me toch niks uit '08
TTITLE3=Jaap de Bok  - Garden Song
TTITLE4=Jaap de Bok  - Min hele leven lang 
TTITLE5=Jaap de Bok  - Leven zonder jou
TTITLE6=Jaap de Bok  - como Quieres Que Te Quiera
TTITLE7=Jaap de Bok  - Naar huis
TTITLE8=Jaap de Bok  - Ouwe Knaker
TTITLE9=Jaap de Bok  - Vrijdagavond
TTITLE10=Jaap de Bok  - VD24
TTITLE11=Jaap de Bok  - Danny Boy
TTITLE12=Jaap de Bok  - De Volgende keer
TTITLE13=Jaap de Bok  - Virginia (touch me like you do)
TTITLE14=Jaap de Bok  - Como Quieres (English)
TTITLE15=Jaap de Bok  - If Only
TTITLE16=Jaap de Bok  - Abrazame
TTITLE17=Jaap de Bok  -  Maybe Next Time
TTITLE18=Jaap de Bok  
EXTD=
EXTT0=
EXTT1=
EXTT2=
EXTT3=
EXTT4=
EXTT5=
EXTT6=
EXTT7=
EXTT8=
EXTT9=
EXTT10=
EXTT11=
EXTT12=
EXTT13=
EXTT14=
EXTT15=
EXTT16=
EXTT17=
EXTT18=
PLAYORDER=
